<?xml version="1.0"?>
<svg xmlns="http://www.w3.org/2000/svg" xmlns:xlink="http://www.w3.org/1999/xlink" xmlns:svgjs="http://svgjs.com/svgjs" version="1.1" width="512" height="512" x="0" y="0" viewBox="0 0 511.994 511.994" style="enable-background:new 0 0 512 512" xml:space="preserve" class=""><g><path xmlns="http://www.w3.org/2000/svg" d="m510.923 196.732c-.009-.029-.014-.058-.023-.087-.009-.028-.022-.054-.031-.082-2.639-8.017-9.456-13.747-17.814-14.962l-150.105-21.812-67.131-136.018c-3.751-7.601-11.347-12.322-19.822-12.322-8.476 0-16.072 4.722-19.823 12.322l-67.129 136.019-30.25 4.396c-4.099.596-6.939 4.401-6.343 8.501.596 4.099 4.399 6.939 8.5 6.343l29.669-4.311 28.834 39.687-82.536 11.993-93.301-30.319 82.837-12.037c4.099-.595 6.939-4.401 6.343-8.5s-4.397-6.943-8.5-6.343l-85.358 12.401c-8.349 1.213-15.159 6.932-17.804 14.934-.013.037-.03.072-.042.11-.013.038-.019.077-.031.116-2.562 8.028-.414 16.656 5.626 22.544l108.617 105.876-25.641 149.499c-1.433 8.354 1.937 16.638 8.793 21.62 3.875 2.815 8.408 4.246 12.973 4.246 3.513 0 7.045-.848 10.308-2.563l134.258-70.584 28.326 14.892c3.666 1.928 8.201.517 10.129-3.148 1.927-3.667.518-8.201-3.148-10.129l-27.806-14.619v-49.055l73.817 38.808 57.669 79.374-72.628-38.183c-3.667-1.927-8.201-.518-10.129 3.148-1.927 3.667-.518 8.201 3.148 10.129l74.88 39.367c3.263 1.715 6.794 2.563 10.307 2.563 4.564 0 9.098-1.43 12.972-4.245 6.857-4.982 10.227-13.267 8.794-21.621l-25.641-149.499 108.617-105.876c6.049-5.894 8.195-14.536 5.619-22.573zm-115.849 29.665-82.536-11.993 28.834-39.687 147.003 21.361zm-146.577-193.701v98.11l-36.906 74.782-28.834-39.686zm-229.51 177.65 93.315 30.323 59.709 58.202-46.655 15.159zm111.004 117.95 46.655-15.159-14.096 82.188-57.668 79.372zm-12.981 155.226 57.67-79.374 73.817-38.808v49.055zm142.477-137.237c-2.186-1.148-4.795-1.148-6.98 0l-72.901 38.327 13.923-81.176c.417-2.433-.389-4.916-2.157-6.639l-58.979-57.49 81.507-11.844c2.443-.355 4.555-1.889 5.647-4.103l36.45-73.857 7.295 14.782c1.833 3.713 6.328 5.239 10.045 3.406 3.714-1.833 5.239-6.331 3.406-10.045l-13.246-26.84v-98.109l65.741 133.205-28.834 39.686-8.068-16.347c-1.834-3.714-6.33-5.239-10.045-3.406-3.714 1.833-5.239 6.331-3.406 10.045l13.563 27.481c1.092 2.213 3.204 3.748 5.647 4.103l81.506 11.844-58.978 57.49c-1.768 1.723-2.575 4.206-2.157 6.639l13.923 81.176zm147.625 128.411-57.668-79.371-14.096-82.188 46.654 15.159zm-20.474-160.666-46.655-15.159 59.71-58.203 93.315-30.323z" fill="#ffffff" data-original="#000000" style="" class=""/></g></svg>
